<?xml version="1.0" standalone="no"?>
<!DOCTYPE svg PUBLIC "-//W3C//DTD SVG 20010904//EN"
 "http://www.w3.org/TR/2001/REC-SVG-20010904/DTD/svg10.dtd">
<svg version="1.0" xmlns="http://www.w3.org/2000/svg"
 width="1500.000000pt" height="1500.000000pt" viewBox="0 0 1500.000000 1500.000000"
 preserveAspectRatio="xMidYMid meet">
<metadata>
Created by potrace 1.14, written by Peter Selinger 2001-2017
</metadata>
<g transform="translate(0.000000,1500.000000) scale(0.100000,-0.100000)"
fill="#000000" stroke="none">
<path d="M9290 10934 c-137 -16 -286 -42 -485 -86 -681 -149 -964 -167 -1480
-93 -406 59 -695 60 -1069 4 -758 -112 -1548 -484 -2134 -1003 -500 -444 -799
-898 -926 -1409 -68 -273 -288 -1278 -360 -1642 -103 -522 -174 -955 -225
-1370 -71 -578 -71 -1048 0 -1199 37 -79 4 -76 790 -76 l690 0 24 25 c105 104
-155 321 -525 440 -47 15 -98 32 -114 38 -35 13 -58 61 -45 95 5 14 58 77 117
141 351 378 654 787 940 1266 94 158 192 347 365 705 28 57 65 77 108 60 68
-29 65 -66 -21 -258 -39 -86 -70 -168 -70 -182 0 -66 57 -98 134 -76 224 63
577 111 1273 176 492 45 884 87 1223 131 129 17 254 33 277 36 47 6 80 31 89
70 11 42 -57 358 -112 526 -14 43 -41 101 -60 128 -41 61 -44 106 -11 137 29
28 76 28 110 1 37 -29 100 -163 142 -301 57 -193 125 -555 225 -1208 168
-1096 266 -1537 397 -1792 48 -94 84 -132 136 -146 18 -4 338 -6 712 -3 634 6
683 7 708 24 65 42 55 90 -37 182 -103 103 -309 208 -530 271 -68 19 -96 43
-96 83 0 15 22 75 49 132 187 401 364 1008 441 1514 26 172 33 201 53 223 28
31 80 30 112 -3 31 -30 31 -34 1 -225 -80 -503 -220 -1011 -401 -1448 -53
-127 -50 -133 80 -187 180 -74 287 -135 380 -217 89 -78 155 -190 155 -261 0
-18 6 -41 13 -51 13 -18 32 -18 360 -11 368 8 386 10 372 54 -25 80 -217 200
-425 265 -96 30 -111 38 -125 67 -13 24 -13 37 0 99 23 110 73 420 94 590 47
367 55 506 56 985 0 495 -9 645 -44 714 -30 58 -92 105 -179 136 -132 47 -198
85 -373 213 -16 13 -25 8 -77 -37 -85 -74 -122 -70 -185 18 -58 81 -96 166
-127 282 -35 133 -110 279 -143 279 -5 0 -60 -29 -122 -65 -61 -36 -121 -65
-132 -65 -39 0 -71 37 -84 98 -15 71 -15 240 0 306 7 27 10 50 8 53 -3 2 -39
-4 -82 -12 -75 -16 -79 -16 -104 3 -42 31 -53 82 -48 212 5 127 16 171 78 294
22 43 38 80 36 82 -2 2 -40 -4 -85 -14 -75 -15 -85 -15 -110 -1 -44 24 -56 60
-43 132 21 122 132 303 308 500 74 82 131 172 177 275 32 73 74 232 83 314 l6
56 -74 104 c-171 240 -220 405 -158 529 43 87 212 194 343 219 82 15 156 3
261 -42 82 -35 212 -119 281 -181 80 -72 80 -72 197 -42 67 17 144 28 225 32
89 4 125 10 134 21 17 20 6 27 -227 142 -220 109 -352 157 -538 196 -104 21
-154 26 -332 29 -115 2 -226 1 -245 -1z"/>
<path d="M9498 10601 c-111 -45 -168 -99 -168 -161 0 -78 33 -141 203 -388
l57 -83 -6 -67 c-9 -101 -41 -253 -70 -334 -56 -156 -126 -269 -259 -423 -159
-183 -192 -247 -142 -279 19 -13 32 -13 100 1 76 15 79 15 105 -4 42 -31 42
-82 0 -147 -179 -270 -234 -457 -137 -458 13 0 56 1 95 2 89 3 110 -4 129 -40
21 -41 19 -59 -15 -133 -17 -35 -33 -87 -37 -115 -10 -87 24 -103 120 -56 79
39 114 30 191 -49 76 -77 136 -194 172 -332 14 -55 32 -110 40 -122 20 -32 76
-40 136 -18 26 9 59 14 72 11 12 -3 53 -30 89 -60 97 -79 203 -142 298 -177
141 -51 367 -119 398 -119 16 0 62 11 102 24 41 13 119 39 174 56 137 44 263
111 370 197 49 40 100 76 113 79 13 4 42 -1 65 -10 108 -41 143 -15 182 134
46 175 129 318 221 379 58 38 90 39 152 4 44 -24 49 -25 77 -12 28 14 30 18
28 71 -1 39 -11 76 -32 122 -38 80 -38 97 -3 137 27 30 31 31 102 30 41 0 83
-4 93 -7 28 -9 67 22 67 54 0 77 -49 188 -160 369 -67 108 -73 141 -35 178 28
29 46 30 130 10 52 -12 63 -12 82 0 42 28 39 50 -21 133 -31 42 -91 117 -134
166 -141 159 -222 311 -277 521 -15 56 -29 142 -32 195 l-5 95 38 55 c148 216
182 272 203 338 15 46 21 81 17 98 -17 65 -155 145 -261 152 -72 5 -159 -25
-278 -95 -81 -47 -111 -77 -99 -99 4 -7 32 -30 62 -51 58 -41 73 -70 57 -116
-20 -59 -74 -62 -164 -7 -139 84 -296 130 -443 130 -108 0 -185 -17 -279 -60
-35 -17 -72 -30 -83 -30 -11 0 -48 13 -82 29 -93 45 -171 61 -289 61 -172 0
-324 -41 -503 -137 -102 -55 -164 -37 -164 47 0 40 17 59 95 105 12 7 16 17
11 30 -9 28 -106 98 -205 147 -101 51 -185 61 -263 29z m789 -1600 c115 -37
153 -65 153 -112 0 -42 -14 -64 -49 -79 -26 -10 -38 -9 -93 13 -66 26 -159 47
-213 47 -72 0 -105 91 -50 138 27 23 34 24 110 19 44 -3 108 -15 142 -26z
m1418 4 c51 -50 15 -135 -57 -135 -49 0 -165 -27 -223 -51 -49 -20 -53 -20
-84 -5 -46 24 -58 62 -34 106 14 26 32 40 78 58 78 31 166 50 238 51 49 1 62
-3 82 -24z m-1113 -185 c39 -30 52 -72 45 -148 -12 -141 -99 -352 -249 -604
-96 -161 -105 -212 -52 -304 51 -89 152 -143 279 -151 44 -3 98 -1 120 4 39 9
40 10 43 54 3 46 3 46 -67 103 -73 59 -134 136 -195 247 -54 99 -48 133 33
174 81 41 164 51 253 31 62 -14 84 -15 122 -5 116 29 279 -15 312 -85 17 -34
17 -35 -19 -111 -57 -118 -160 -240 -249 -293 -24 -14 -28 -23 -28 -59 0 -41
1 -42 38 -50 70 -15 203 -9 258 11 148 55 225 184 182 306 -6 18 -43 86 -81
149 -83 136 -164 303 -202 416 -27 82 -43 212 -31 259 15 62 88 87 136 48 20
-16 23 -29 25 -108 2 -67 10 -107 30 -163 41 -112 106 -243 186 -376 40 -66
78 -135 86 -153 80 -191 -15 -408 -221 -507 -61 -29 -79 -44 -100 -79 -48 -83
-139 -146 -261 -181 -44 -13 -83 -16 -159 -13 -89 4 -110 9 -177 40 -90 42
-148 92 -188 162 -23 39 -41 57 -78 75 -140 68 -243 219 -243 357 0 81 30 157
115 299 146 241 217 419 217 540 0 89 3 102 36 120 37 19 55 18 84 -5z"/>
<path d="M10680 8066 c0 -21 86 -129 131 -165 43 -34 54 -39 71 -30 55 29 168
157 168 190 0 8 -14 9 -52 4 -69 -10 -166 -10 -250 0 -38 4 -68 5 -68 1z"/>
<path d="M10790 7465 c-25 -7 -60 -14 -77 -14 -47 -1 -41 -16 15 -38 72 -28
202 -25 267 6 l50 23 -60 14 c-94 21 -146 24 -195 9z"/>
<path d="M2772 8284 c-34 -18 -131 -126 -187 -211 -102 -152 -174 -337 -201
-515 -37 -246 34 -384 212 -413 54 -8 107 14 132 54 10 17 42 138 71 268 29
131 74 336 102 455 27 120 49 231 49 248 0 90 -98 153 -178 114z"/>
<path d="M6145 6314 c-354 -34 -588 -62 -790 -96 -313 -52 -571 -129 -622
-185 -31 -33 -29 -69 11 -177 57 -150 84 -277 161 -735 101 -604 160 -825 259
-959 64 -87 8 -82 835 -82 718 0 731 0 751 20 11 11 20 33 20 48 0 41 -59 119
-132 175 -84 64 -276 158 -418 203 -117 37 -160 65 -160 103 0 10 26 76 59
148 163 359 298 795 390 1258 22 110 37 212 34 228 -3 15 -19 38 -35 52 -36
30 -40 30 -363 -1z"/>
<path d="M13277 393 c-4 -3 -7 -17 -7 -30 0 -16 -6 -23 -20 -23 -11 0 -20 -7
-20 -15 0 -8 7 -15 15 -15 22 0 18 -21 -5 -27 -22 -6 -28 -33 -7 -33 9 0 12
-10 9 -30 -3 -22 0 -30 11 -30 10 0 17 11 19 27 4 39 28 42 28 4 0 -40 19 -40
27 -1 4 21 11 30 24 30 11 0 19 7 19 15 0 8 -7 15 -15 15 -8 0 -15 7 -15 15 0
8 9 15 20 15 11 0 20 5 20 10 0 6 8 10 19 10 10 0 21 9 24 21 8 29 51 22 55
-8 2 -15 -11 -38 -42 -71 -66 -70 -62 -82 24 -82 56 0 70 3 70 15 0 11 -12 15
-45 15 -25 0 -45 4 -45 8 0 5 13 21 29 36 40 39 56 78 42 105 -23 42 -98 40
-121 -4 -19 -36 -41 -33 -33 5 4 23 2 30 -9 30 -9 0 -18 -13 -21 -30 -4 -16
-12 -30 -18 -30 -7 0 -10 12 -7 30 4 28 -9 40 -25 23z m37 -98 c-4 -8 -12 -15
-20 -15 -8 0 -11 6 -8 15 4 8 12 15 20 15 8 0 11 -6 8 -15z"/>
<path d="M13583 334 c-55 -85 -55 -94 2 -94 41 0 45 -2 45 -25 0 -16 6 -25 15
-25 9 0 15 9 15 25 0 16 6 25 15 25 8 0 15 7 15 15 0 8 -7 15 -15 15 -12 0
-15 14 -15 65 0 88 -20 88 -77 -1z m44 -61 c-3 -2 -15 -3 -26 -1 -20 3 -20 3
2 38 l22 35 3 -33 c2 -19 1 -36 -1 -39z"/>
<path d="M13726 384 c-9 -8 -16 -22 -16 -30 0 -19 26 -18 34 2 9 24 50 14 54
-14 3 -18 -2 -23 -27 -28 -38 -8 -41 -32 -3 -36 21 -2 27 -8 27 -28 0 -18 -6
-26 -23 -28 -13 -2 -25 3 -28 12 -6 16 -44 23 -44 9 1 -24 45 -53 79 -53 26 0
61 34 61 59 0 11 -7 26 -15 35 -9 9 -11 17 -5 21 16 10 12 62 -6 79 -8 9 -28
16 -44 16 -16 0 -36 -7 -44 -16z"/>
<path d="M13902 331 c-23 -37 -42 -73 -42 -80 0 -6 18 -11 45 -11 41 0 45 -2
45 -25 0 -16 6 -25 15 -25 9 0 15 9 15 25 0 16 6 25 15 25 8 0 15 7 15 15 0 8
-7 15 -15 15 -12 0 -15 14 -15 65 0 89 -21 88 -78 -4z m45 -58 c-3 -2 -15 -3
-26 -1 -20 3 -20 3 2 38 l22 35 3 -33 c2 -19 1 -36 -1 -39z"/>
<path d="M14052 384 c-24 -17 -29 -53 -10 -72 9 -9 9 -15 0 -24 -20 -20 -14
-65 10 -82 29 -20 58 -20 87 0 19 13 22 22 17 48 -4 17 -7 40 -6 51 0 11 1 31
1 44 2 46 -55 66 -99 35z m66 -42 c4 -28 -24 -40 -45 -19 -14 13 -14 19 -3 32
18 22 44 15 48 -13z m2 -77 c10 -12 10 -18 0 -30 -27 -32 -71 -8 -56 30 3 8
14 15 24 15 11 0 25 -7 32 -15z"/>
<path d="M14214 392 c-11 -7 -34 -45 -34 -56 0 -17 38 -3 43 15 8 29 51 22 55
-8 2 -15 -11 -38 -42 -71 -66 -71 -63 -82 25 -82 52 0 70 3 67 13 -3 6 -23 13
-46 15 -23 2 -42 7 -42 11 0 4 12 18 26 32 26 25 54 70 54 89 0 34 -74 64
-106 42z"/>
<path d="M14383 384 c-40 -17 -46 -48 -8 -38 24 6 24 5 27 -72 3 -66 6 -79 21
-82 15 -3 17 7 17 102 0 115 0 115 -57 90z"/>
</g>
</svg>
